{
  "accessors": [
    {
      "bufferView": 2,
      "componentType": 5126,
      "count": 1003,
      "max": [
        6.285999774932861,
        6.624000072479248,
        42.347999572753906
      ],
      "min": [
        -6.335999965667725,
        -6.4079999923706055,
        30.466999053955078
      ],
      "type": "VEC3"
    },
    {
      "bufferView": 2,
      "byteOffset": 12036,
      "componentType": 5126,
      "count": 1003,
      "max": [
        0.9985337853431702,
        0.9998066425323486,
        0.9978806972503662
      ],
      "min": [
        -0.9995594024658203,
        -0.9978107213973999,
        -1.0
      ],
      "type": "VEC3"
    },
    {
      "bufferView": 0,
      "componentType": 5125,
      "count": 4380,
      "type": "SCALAR"
    },
    {
      "bufferView": 2,
      "byteOffset": 24072,
      "componentType": 5126,
      "count": 530,
      "max": [
        7.0,
        3.9600000381469727,
        20.799999237060547
      ],
      "min": [
        -7.0,
        -3.9600000381469727,
        7.635000228881836
      ],
      "type": "VEC3"
    },
    {
      "bufferView": 2,
      "byteOffset": 30432,
      "componentType": 5126,
      "count": 530,
      "max": [
        1.0,
        1.0,
        1.0
      ],
      "min": [
        -1.0,
        -1.0,
        -1.0
      ],
      "type": "VEC3"
    },
    {
      "bufferView": 1,
      "componentType": 5126,
      "count": 530,
      "max": [
        0.9732900261878967,
        0.9873200058937073
      ],
      "min": [
        0.026520000770688057,
        0.013059999793767929
      ],
      "type": "VEC2"
    },
    {
      "bufferView": 0,
      "byteOffset": 17520,
      "componentType": 5125,
      "count": 1560,
      "type": "SCALAR"
    },
    {
      "bufferView": 2,
      "byteOffset": 36792,
      "componentType": 5126,
      "count": 837,
      "max": [
        5.099999904632568,
        5.099999904632568,
        40.400001525878906
      ],
      "min": [
        -5.099999904632568,
        -5.099999904632568,
        28.81999969482422
      ],
      "type": "VEC3"
    },
    {
      "bufferView": 2,
      "byteOffset": 46836,
      "componentType": 5126,
      "count": 837,
      "max": [
        1.0,
        0.9999098777770996,
        1.0
      ],
      "min": [
        -0.9999999403953552,
        -0.9990761876106262,
        -1.0
      ],
      "type": "VEC3"
    },
    {
      "bufferView": 1,
      "byteOffset": 4240,
      "componentType": 5126,
      "count": 837,
      "max": [
        0.9879999756813049,
        0.9810000061988831
      ],
      "min": [
        0.21299999952316284,
        0.014000000432133675
      ],
      "type": "VEC2"
    },
    {
      "bufferView": 0,
      "byteOffset": 23760,
      "componentType": 5125,
      "count": 3246,
      "type": "SCALAR"
    },
    {
      "bufferView": 2,
      "byteOffset": 56880,
      "componentType": 5126,
      "count": 412,
      "max": [
        7.699999809265137,
        3.9600000381469727,
        34.5
      ],
      "min": [
        -7.699999809265137,
        -3.9600000381469727,
        16.020000457763672
      ],
      "type": "VEC3"
    },
    {
      "bufferView": 2,
      "byteOffset": 61824,
      "componentType": 5126,
      "count": 412,
      "max": [
        1.0,
        1.0,
        1.0
      ],
      "min": [
        -1.0,
        -1.0,
        -1.0
      ],
      "type": "VEC3"
    },
    {
      "bufferView": 1,
      "byteOffset": 10936,
      "componentType": 5126,
      "count": 412,
      "max": [
        0.967960000038147,
        0.9669100046157837
      ],
      "min": [
        0.03290000185370445,
        0.030570000410079956
      ],
      "type": "VEC2"
    },
    {
      "bufferView": 0,
      "byteOffset": 36744,
      "componentType": 5125,
      "count": 1176,
      "type": "SCALAR"
    },
    {
      "bufferView": 2,
      "byteOffset": 66768,
      "componentType": 5126,
      "count": 739,
      "max": [
        7.699999809265137,
        3.5999999046325684,
        14.800000190734863
      ],
      "min": [
        0.5,
        -4.360000133514404,
        0.019999999552965164
      ],
      "type": "VEC3"
    },
    {
      "bufferView": 2,
      "byteOffset": 75636,
      "componentType": 5126,
      "count": 739,
      "max": [
        1.0,
        1.0,
        1.0
      ],
      "min": [
        -1.0,
        -1.0,
        -1.0
      ],
      "type": "VEC3"
    },
    {
      "bufferView": 1,
      "byteOffset": 14232,
      "componentType": 5126,
      "count": 739,
      "max": [
        0.9431999921798706,
        0.9313399791717529
      ],
      "min": [
        0.055709999054670334,
        0.013039999641478062
      ],
      "type": "VEC2"
    },
    {
      "bufferView": 0,
      "byteOffset": 41448,
      "componentType": 5125,
      "count": 2334,
      "type": "SCALAR"
    },
    {
      "bufferView": 2,
      "byteOffset": 84504,
      "componentType": 5126,
      "count": 739,
      "max": [
        -0.5,
        3.5999999046325684,
        14.800000190734863
      ],
      "min": [
        -7.699999809265137,
        -4.360000133514404,
        0.019999999552965164
      ],
      "type": "VEC3"
    },
    {
      "bufferView": 2,
      "byteOffset": 93372,
      "componentType": 5126,
      "count": 739,
      "max": [
        1.0,
        1.0,
        1.0
      ],
      "min": [
        -1.0,
        -1.0,
        -1.0
      ],
      "type": "VEC3"
    },
    {
      "bufferView": 1,
      "byteOffset": 20144,
      "componentType": 5126,
      "count": 739,
      "max": [
        0.9462000131607056,
        0.9334400296211243
      ],
      "min": [
        0.05699000135064125,
        0.014790000393986702
      ],
      "type": "VEC2"
    },
    {
      "bufferView": 0,
      "byteOffset": 50784,
      "componentType": 5125,
      "count": 2334,
      "type": "SCALAR"
    },
    {
      "bufferView": 2,
      "byteOffset": 102240,
      "componentType": 5126,
      "count": 1038,
      "max": [
        12.720999717712402,
        1.5299999713897705,
        22.28700065612793
      ],
      "min": [
        -12.720999717712402,
        -8.553999900817871,
        12.741999626159668
      ],
      "type": "VEC3"
    },
    {
      "bufferView": 2,
      "byteOffset": 114696,
      "componentType": 5126,
      "count": 1038,
      "max": [
        0.9948285818099976,
        0.9990859031677246,
        0.9983335733413696
      ],
      "min": [
        -0.9948285818099976,
        -0.9919527769088745,
        -0.9823728203773499
      ],
      "type": "VEC3"
    },
    {
      "bufferView": 0,
      "byteOffset": 60120,
      "componentType": 5125,
      "count": 3780,
      "type": "SCALAR"
    },
    {
      "bufferView": 2,
      "byteOffset": 127152,
      "componentType": 5126,
      "count": 1346,
      "max": [
        11.567000389099121,
        2.6470000743865967,
        27.66900062561035
      ],
      "min": [
        -11.567000389099121,
        -4.525000095367432,
        16.261999130249023
      ],
      "type": "VEC3"
    },
    {
      "bufferView": 2,
      "byteOffset": 143304,
      "componentType": 5126,
      "count": 1346,
      "max": [
        0.9906724691390991,
        0.9997314214706421,
        0.9997923374176025
      ],
      "min": [
        -0.9906725883483887,
        -0.9998061060905457,
        -0.9997162222862244
      ],
      "type": "VEC3"
    },
    {
      "bufferView": 0,
      "byteOffset": 75240,
      "componentType": 5125,
      "count": 5712,
      "type": "SCALAR"
    }
  ],
  "asset": {
    "extras": {
      "author": "Emeli10 (https://sketchfab.com/Emeli10)",
      "license": "CC-BY-4.0 (http://creativecommons.org/licenses/by/4.0/)",
      "source": "https://sketchfab.com/3d-models/lego-man-pilot-87609996959243729dfa2d683e5caa23",
      "title": "Lego man pilot"
    },
    "generator": "Sketchfab-16.15.0",
    "version": "2.0"
  },
  "bufferViews": [
    {
      "buffer": 0,
      "byteLength": 98088,
      "name": "floatBufferViews",
      "target": 34963
    },
    {
      "buffer": 0,
      "byteLength": 26056,
      "byteOffset": 98088,
      "byteStride": 8,
      "name": "floatBufferViews",
      "target": 34962
    },
    {
      "buffer": 0,
      "byteLength": 159456,
      "byteOffset": 124144,
      "byteStride": 12,
      "name": "floatBufferViews",
      "target": 34962
    }
  ],
  "buffers": [
    {
      "byteLength": 283600,
      "uri": "scene.bin"
    }
  ],
  "images": [
    {
      "uri": "textures/MB_199_official_429_baseColor.png"
    },
    {
      "uri": "textures/MB_24_official_3254_baseColor.png"
    },
    {
      "uri": "textures/MB_26_official_158_baseColor.png"
    },
    {
      "uri": "textures/MB_26_official_427_baseColor.png"
    },
    {
      "uri": "textures/MB_26_official_428_baseColor.png"
    }
  ],
  "materials": [
    {
      "doubleSided": true,
      "name": "MB_192",
      "pbrMetallicRoughness": {
        "baseColorFactor": [
          0.104616,
          0.0262412,
          0.00439144,
          1.0
        ],
        "metallicFactor": 0.0
      }
    },
    {
      "doubleSided": true,
      "name": "MB_199_official_429",
      "pbrMetallicRoughness": {
        "baseColorTexture": {
          "index": 0
        },
        "metallicFactor": 0.0
      }
    },
    {
      "doubleSided": true,
      "name": "MB_24",
      "pbrMetallicRoughness": {
        "baseColorFactor": [
          0.938686,
          0.571125,
          0.00913406,
          1.0
        ],
        "metallicFactor": 0.0
      }
    },
    {
      "doubleSided": true,
      "name": "MB_24_official_3254",
      "pbrMetallicRoughness": {
        "baseColorTexture": {
          "index": 1
        },
        "metallicFactor": 0.0
      }
    },
    {
      "doubleSided": true,
      "name": "MB_26",
      "pbrMetallicRoughness": {
        "baseColorFactor": [
          0.00518152,
          0.00518152,
          0.00518152,
          1.0
        ],
        "metallicFactor": 0.0
      }
    },
    {
      "doubleSided": true,
      "name": "MB_26_official_158",
      "pbrMetallicRoughness": {
        "baseColorTexture": {
          "index": 2
        },
        "metallicFactor": 0.0
      }
    },
    {
      "doubleSided": true,
      "name": "MB_26_official_427",
      "pbrMetallicRoughness": {
        "baseColorTexture": {
          "index": 3
        },
        "metallicFactor": 0.0
      }
    },
    {
      "doubleSided": true,
      "name": "MB_26_official_428",
      "pbrMetallicRoughness": {
        "baseColorTexture": {
          "index": 4
        },
        "metallicFactor": 0.0
      }
    }
  ],
  "meshes": [
    {
      "name": "Object_0",
      "primitives": [
        {
          "attributes": {
            "NORMAL": 1,
            "POSITION": 0
          },
          "indices": 2,
          "material": 0,
          "mode": 4
        }
      ]
    },
    {
      "name": "Object_1",
      "primitives": [
        {
          "attributes": {
            "NORMAL": 4,
            "POSITION": 3,
            "TEXCOORD_0": 5
          },
          "indices": 6,
          "material": 1,
          "mode": 4
        }
      ]
    },
    {
      "name": "Object_2",
      "primitives": [
        {
          "attributes": {
            "NORMAL": 8,
            "POSITION": 7,
            "TEXCOORD_0": 9
          },
          "indices": 10,
          "material": 3,
          "mode": 4
        }
      ]
    },
    {
      "name": "Object_3",
      "primitives": [
        {
          "attributes": {
            "NORMAL": 12,
            "POSITION": 11,
            "TEXCOORD_0": 13
          },
          "indices": 14,
          "material": 5,
          "mode": 4
        }
      ]
    },
    {
      "name": "Object_4",
      "primitives": [
        {
          "attributes": {
            "NORMAL": 16,
            "POSITION": 15,
            "TEXCOORD_0": 17
          },
          "indices": 18,
          "material": 6,
          "mode": 4
        }
      ]
    },
    {
      "name": "Object_5",
      "primitives": [
        {
          "attributes": {
            "NORMAL": 20,
            "POSITION": 19,
            "TEXCOORD_0": 21
          },
          "indices": 22,
          "material": 7,
          "mode": 4
        }
      ]
    },
    {
      "name": "Object_6",
      "primitives": [
        {
          "attributes": {
            "NORMAL": 24,
            "POSITION": 23
          },
          "indices": 25,
          "material": 2,
          "mode": 4
        }
      ]
    },
    {
      "name": "Object_7",
      "primitives": [
        {
          "attributes": {
            "NORMAL": 27,
            "POSITION": 26
          },
          "indices": 28,
          "material": 4,
          "mode": 4
        }
      ]
    }
  ],
  "nodes": [
    {
      "children": [
        1
      ],
      "matrix": [
        1.0,
        0.0,
        0.0,
        0.0,
        0.0,
        2.220446049250313e-16,
        -1.0,
        0.0,
        0.0,
        1.0,
        2.220446049250313e-16,
        0.0,
        0.0,
        0.0,
        0.0,
        1.0
      ],
      "name": "Sketchfab_model"
    },
    {
      "children": [
        2,
        3,
        4,
        5,
        6,
        7,
        8,
        9
      ],
      "name": "Lego man pilot .obj.cleaner.materialmerger.gles"
    },
    {
      "mesh": 0,
      "name": "Object_2"
    },
    {
      "mesh": 1,
      "name": "Object_3"
    },
    {
      "mesh": 2,
      "name": "Object_4"
    },
    {
      "mesh": 3,
      "name": "Object_5"
    },
    {
      "mesh": 4,
      "name": "Object_6"
    },
    {
      "mesh": 5,
      "name": "Object_7"
    },
    {
      "mesh": 6,
      "name": "Object_8"
    },
    {
      "mesh": 7,
      "name": "Object_9"
    }
  ],
  "samplers": [
    {
      "magFilter": 9729,
      "minFilter": 9987,
      "wrapS": 10497,
      "wrapT": 10497
    }
  ],
  "scene": 0,
  "scenes": [
    {
      "name": "Sketchfab_Scene",
      "nodes": [
        0
      ]
    }
  ],
  "textures": [
    {
      "sampler": 0,
      "source": 0
    },
    {
      "sampler": 0,
      "source": 1
    },
    {
      "sampler": 0,
      "source": 2
    },
    {
      "sampler": 0,
      "source": 3
    },
    {
      "sampler": 0,
      "source": 4
    }
  ]
}
